<svg width="26" height="26" viewBox="0 0 29 29" fill="none" xmlns="http://www.w3.org/2000/svg">
<path d="M22.0413 19.1769C22.0413 20.8276 21.5046 22.249 20.4311 23.4411C19.3576 24.6333 17.9632 25.3696 16.2478 25.6501V28.4821C16.2478 28.6332 16.1992 28.7573 16.1021 28.8544C16.005 28.9514 15.881 29 15.7299 29H13.5452C13.4049 29 13.2836 28.9488 13.1811 28.8463C13.0786 28.7438 13.0273 28.6224 13.0273 28.4821V25.6501C12.3153 25.553 11.6275 25.3858 10.964 25.1484C10.3005 24.9111 9.75298 24.671 9.32143 24.4283C8.88988 24.1855 8.4907 23.9266 8.12388 23.6515C7.75707 23.3764 7.50623 23.1741 7.37137 23.0446C7.23651 22.9152 7.14211 22.8181 7.08817 22.7533C6.90476 22.5268 6.89397 22.3056 7.0558 22.0898L8.72266 19.9051C8.79818 19.7972 8.92225 19.7325 9.09487 19.7109C9.2567 19.6894 9.38616 19.7379 9.48326 19.8566L9.51562 19.8889C10.7347 20.957 12.0456 21.6313 13.4481 21.9118C13.8473 21.9981 14.2465 22.0413 14.6456 22.0413C15.5195 22.0413 16.2882 21.8093 16.9517 21.3454C17.6152 20.8815 17.947 20.2234 17.947 19.3711C17.947 19.069 17.8661 18.7831 17.7042 18.5134C17.5424 18.2437 17.3617 18.0171 17.1621 17.8337C16.9625 17.6503 16.6469 17.448 16.2154 17.2268C15.7839 17.0057 15.4278 16.8331 15.1473 16.709C14.8668 16.5849 14.4353 16.4096 13.8527 16.183C13.4319 16.0104 13.1002 15.8756 12.8574 15.7785C12.6147 15.6814 12.2829 15.5384 11.8622 15.3496C11.4414 15.1608 11.1043 14.9936 10.8507 14.8479C10.5972 14.7023 10.2924 14.5108 9.93638 14.2734C9.58036 14.0361 9.29176 13.8068 9.07059 13.5857C8.84942 13.3645 8.61477 13.1002 8.36663 12.7927C8.11849 12.4852 7.92699 12.1723 7.79213 11.8541C7.65727 11.5358 7.54399 11.1771 7.45229 10.7779C7.36058 10.3787 7.31473 9.95796 7.31473 9.51562C7.31473 8.02679 7.84338 6.72135 8.90067 5.59933C9.95796 4.47731 11.3335 3.75446 13.0273 3.4308V0.517857C13.0273 0.377604 13.0786 0.256231 13.1811 0.153739C13.2836 0.0512463 13.4049 0 13.5452 0H15.7299C15.881 0 16.005 0.0485491 16.1021 0.145647C16.1992 0.242746 16.2478 0.366815 16.2478 0.517857V3.36607C16.8627 3.4308 17.4588 3.55487 18.036 3.73828C18.6132 3.92169 19.0825 4.1024 19.4439 4.28041C19.8053 4.45843 20.1479 4.66071 20.4715 4.88728C20.7952 5.11384 21.0056 5.27028 21.1027 5.35658C21.1998 5.44289 21.2807 5.51841 21.3454 5.58315C21.5288 5.77734 21.5558 5.98233 21.4263 6.1981L20.1155 8.56083C20.0292 8.72266 19.9051 8.80896 19.7433 8.81975C19.5923 8.85212 19.4466 8.81436 19.3064 8.70647C19.274 8.67411 19.1958 8.60937 19.0717 8.51228C18.9476 8.41518 18.7373 8.27223 18.4406 8.08343C18.1439 7.89462 17.8283 7.722 17.4939 7.56557C17.1594 7.40913 16.7575 7.26888 16.2882 7.14481C15.8189 7.02074 15.3577 6.9587 14.9046 6.9587C13.8797 6.9587 13.0435 7.19066 12.3962 7.65458C11.7489 8.11849 11.4252 8.71726 11.4252 9.45089C11.4252 9.7314 11.4711 9.99033 11.5628 10.2277C11.6545 10.465 11.8136 10.6889 12.0402 10.8993C12.2667 11.1097 12.4798 11.2877 12.6794 11.4333C12.879 11.579 13.1811 11.7462 13.5857 11.935C13.9902 12.1238 14.3166 12.2694 14.5647 12.3719C14.8129 12.4744 15.1905 12.6228 15.6975 12.817C16.2693 13.0327 16.7063 13.2027 17.0084 13.3267C17.3105 13.4508 17.7204 13.6396 18.2383 13.8931C18.7561 14.1467 19.1634 14.3759 19.4601 14.5809C19.7568 14.7859 20.0912 15.0556 20.4634 15.3901C20.8357 15.7245 21.1216 16.0671 21.3211 16.4177C21.5207 16.7683 21.6907 17.181 21.8309 17.6557C21.9712 18.1304 22.0413 18.6375 22.0413 19.1769Z" fill="black"/>
</svg>
