<svg width="26" height="26" viewBox="0 0 33 33" fill="none" xmlns="http://www.w3.org/2000/svg">
<path d="M12.5125 23.375H12.2375C7.0125 23.375 2.75 19.1125 2.75 13.8875V8.25C2.75 7.425 3.3 6.875 4.125 6.875H20.625C21.45 6.875 22 7.425 22 8.25V13.8875C22 19.1125 17.7375 23.375 12.5125 23.375ZM5.5 9.625V13.8875C5.5 17.6 8.525 20.625 12.2375 20.625H12.375C16.0875 20.625 19.1125 17.6 19.1125 13.8875V9.625H5.5Z" fill="black"/>
<path d="M8.25 9.625C7.425 9.625 6.875 9.075 6.875 8.25V1.375C6.875 0.55 7.425 0 8.25 0C9.075 0 9.625 0.55 9.625 1.375V8.25C9.625 9.075 9.075 9.625 8.25 9.625ZM16.5 9.625C15.675 9.625 15.125 9.075 15.125 8.25V1.375C15.125 0.55 15.675 0 16.5 0C17.325 0 17.875 0.55 17.875 1.375V8.25C17.875 9.075 17.325 9.625 16.5 9.625ZM20.625 33C13.0625 33 11 25.85 10.8625 22C10.8625 21.175 11.4125 20.625 12.2375 20.625C12.925 20.625 13.6125 21.175 13.6125 22C13.6125 22.275 13.75 30.25 20.625 30.25C27.3625 30.25 27.5 22.275 27.5 22V12.375C27.5 11.55 28.05 11 28.875 11C29.7 11 30.25 11.55 30.25 12.375V22C30.25 25.85 28.1875 33 20.625 33Z" fill="black"/>
<path fill-rule="evenodd" clip-rule="evenodd" d="M2.75 13.8875C2.75 19.1125 7.0125 23.375 12.2375 23.375H12.5125C17.7375 23.375 22 19.1125 22 13.8875V8.25C22 7.425 21.45 6.875 20.625 6.875H4.125C3.3 6.875 2.75 7.425 2.75 8.25V13.8875ZM19.1125 9.71022V9.625H19.026C19.0551 9.65323 19.084 9.68164 19.1125 9.71022Z" fill="black"/>
</svg>
