<svg width="26" height="26" viewBox="0 0 32 33" fill="none" xmlns="http://www.w3.org/2000/svg">
<rect width="32" height="33" fill="none"/>
<g id="new-wifi" clip-path="url(#clip0_0_1)">
<path id="Vector" d="M26.4696 14.5631C27.1653 15.2446 27.2348 16.3565 26.5739 17.0739C26.2261 17.4685 25.7739 17.6479 25.287 17.6479C24.8696 17.6479 24.4522 17.5044 24.1044 17.1815C16.3826 9.90003 8.0696 16.8229 7.72178 17.1098C6.99134 17.7555 5.8783 17.6478 5.28699 16.8946C4.66091 16.1413 4.76525 15.0294 5.49569 14.3837C9.28699 11.1196 18.4696 6.99459 26.4696 14.5631ZM16.1044 24.5348C15.2348 24.5348 14.3653 24.8935 13.774 25.5392C13.1479 26.1848 12.8 27.0457 12.8 27.9424C12.8 28.8392 13.1479 29.7 13.774 30.3457C14.4 30.9913 15.2348 31.35 16.1044 31.35C16.974 31.35 17.8435 30.9913 18.4348 30.3457C19.0609 29.7 19.4087 28.8392 19.4087 27.9424C19.4087 27.0457 19.0609 26.1848 18.4348 25.5392C17.8087 24.8935 16.974 24.5348 16.1044 24.5348ZM31.4087 9.68481C23.1653 2.25981 15.2 2.65437 9.94786 4.30437C4.34786 6.06198 0.69569 9.50546 0.55656 9.68481C-0.139093 10.3663 -0.173875 11.4783 0.486994 12.1957C1.14786 12.9131 2.26091 12.9489 2.95656 12.2674C2.99134 12.2315 6.15656 9.2185 10.9913 7.71198C17.3913 5.70329 23.4783 7.28155 29.1479 12.375C29.4609 12.662 29.8783 12.8055 30.2957 12.8055C30.7826 12.8055 31.2696 12.5902 31.6174 12.1957C32.2087 11.4783 32.1392 10.3305 31.4087 9.68481ZM10.2609 19.4772C9.49569 20.087 9.39134 21.1989 9.98265 21.9881C10.574 22.7772 11.687 22.8848 12.4174 22.275C12.5566 22.1674 16.2435 19.2261 19.374 22.2392C19.7218 22.562 20.1392 22.7055 20.5566 22.7055C21.0087 22.7055 21.4957 22.5261 21.8435 22.1315C22.5044 21.4142 22.4696 20.2663 21.7392 19.6207C17.5305 15.6033 12.3826 17.7913 10.2609 19.4772Z" fill="black"/>
</g>
<defs>
<clipPath id="clip0_0_1">
<rect width="32" height="33" fill="white"/>
</clipPath>
</defs>
</svg>
