<svg width="26" height="26" viewBox="0 0 25 25" fill="none" xmlns="http://www.w3.org/2000/svg">
<path d="M10.325 6.29998C10.0266 2.86717 6.44532 1.18279 6.29376 1.11404C6.15208 1.04744 5.9933 1.02616 5.83908 1.0531C1.7047 1.73904 1.08282 4.14529 1.05782 4.24529C1.02381 4.38465 1.02922 4.53071 1.07345 4.66717C6.0047 19.9672 16.2531 22.8031 19.6219 23.7359C19.8813 23.8078 20.0953 23.8656 20.2578 23.9187C20.4433 23.9793 20.6447 23.9676 20.8219 23.8859C20.925 23.839 23.3594 22.6922 23.9547 18.9515C23.9811 18.7882 23.9548 18.6208 23.8797 18.4734C23.8266 18.3703 22.5531 15.9469 19.0219 15.0906C18.9021 15.06 18.7766 15.0589 18.6563 15.0875C18.536 15.116 18.4245 15.1734 18.3313 15.2547C17.2172 16.2062 15.6781 17.2203 15.0141 17.325C10.5625 15.1484 8.07658 10.9719 7.98283 10.1797C7.92814 9.73435 8.94845 8.17029 10.1219 6.89842C10.1956 6.81837 10.2518 6.72377 10.2868 6.6207C10.3218 6.51763 10.3348 6.40838 10.325 6.29998Z" fill="black"/>
</svg>
