<svg width="20" height="20" viewBox="0 0 20 20" fill="none" xmlns="http://www.w3.org/2000/svg">
<path d="M7.58335 14.1667H7.41669C4.25002 14.1667 1.66669 11.5834 1.66669 8.41669V5.00002C1.66669 4.50002 2.00002 4.16669 2.50002 4.16669H12.5C13 4.16669 13.3334 4.50002 13.3334 5.00002V8.41669C13.3334 11.5834 10.75 14.1667 7.58335 14.1667ZM3.33335 5.83335V8.41669C3.33335 10.6667 5.16669 12.5 7.41669 12.5H7.50002C9.75002 12.5 11.5834 10.6667 11.5834 8.41669V5.83335H3.33335Z" fill="#2d3436"/>
<path d="M5.00002 5.83333C4.50002 5.83333 4.16669 5.5 4.16669 5V0.833333C4.16669 0.333333 4.50002 0 5.00002 0C5.50002 0 5.83335 0.333333 5.83335 0.833333V5C5.83335 5.5 5.50002 5.83333 5.00002 5.83333ZM10 5.83333C9.50002 5.83333 9.16669 5.5 9.16669 5V0.833333C9.16669 0.333333 9.50002 0 10 0C10.5 0 10.8334 0.333333 10.8334 0.833333V5C10.8334 5.5 10.5 5.83333 10 5.83333ZM12.5 20C7.91669 20 6.66669 15.6667 6.58335 13.3333C6.58335 12.8333 6.91669 12.5 7.41669 12.5C7.83335 12.5 8.25002 12.8333 8.25002 13.3333C8.25002 13.5 8.33335 18.3333 12.5 18.3333C16.5834 18.3333 16.6667 13.5 16.6667 13.3333V7.5C16.6667 7 17 6.66667 17.5 6.66667C18 6.66667 18.3334 7 18.3334 7.5V13.3333C18.3334 15.6667 17.0834 20 12.5 20Z" fill="#2d3436"/>
</svg>
