<svg width="27" height="27" viewBox="0 0 27 27" fill="none" xmlns="http://www.w3.org/2000/svg">
<g id="Sanitary">
<g id="&#60;Group&#62;">
<path id="&#60;Path&#62;" d="M5.08887 12.4453H19.4326C19.5445 12.4453 19.6518 12.4009 19.7309 12.3218C19.81 12.2426 19.8545 12.1353 19.8545 12.0234C19.8545 11.9116 19.81 11.8042 19.7309 11.7251C19.6518 11.646 19.5445 11.6016 19.4326 11.6016H5.08887C4.97698 11.6016 4.86967 11.646 4.79056 11.7251C4.71144 11.8042 4.66699 11.9116 4.66699 12.0234C4.66699 12.1353 4.71144 12.2426 4.79056 12.3218C4.86967 12.4009 4.97698 12.4453 5.08887 12.4453ZM18.9316 4.29785V5.53711H21.4102V4.29785C21.4125 4.21065 21.3971 4.12389 21.3648 4.04285C21.3325 3.96181 21.284 3.88821 21.2223 3.82652C21.1606 3.76484 21.087 3.71637 21.006 3.68407C20.9249 3.65178 20.8382 3.63633 20.751 3.63868H19.6436C19.2656 3.63868 18.9316 3.91985 18.9316 4.29785Z" fill="black"/>
<path id="&#60;Path&#62;_2" d="M19.9072 22.2012C19.8039 22.1963 19.7061 22.153 19.633 22.0799C19.5599 22.0067 19.5166 21.909 19.5117 21.8057V16.3213C19.5117 16.2234 19.5506 16.1295 19.6198 16.0603C19.6891 15.991 19.783 15.9521 19.8809 15.9521C20.2863 15.9517 20.675 15.7904 20.9617 15.5037C21.2484 15.217 21.4097 14.8283 21.4102 14.4229V6.27539H18.9316V10.8633H19.4326C19.7403 10.8633 20.0354 10.9855 20.253 11.2031C20.4705 11.4207 20.5928 11.7157 20.5928 12.0234C20.5928 12.3311 20.4705 12.6262 20.253 12.8438C20.0354 13.0614 19.7403 13.1836 19.4326 13.1836H18.9316V13.8691C18.9319 14.9969 18.6473 16.1065 18.1042 17.095C17.5612 18.0834 16.7772 18.9186 15.8251 19.5232C14.873 20.1277 13.7837 20.482 12.6581 20.5531C11.5326 20.6242 10.4073 20.4098 9.38672 19.9299V20.2764C9.38672 21.3232 8.54824 22.188 7.50146 22.188C7.14436 22.1833 6.79678 22.3031 6.51843 22.5269C6.24007 22.7506 6.04832 23.0643 5.97612 23.4141H22.2895C22.1229 22.6758 21.4963 22.2012 20.751 22.2012H19.9072Z" fill="black"/>
<path id="&#60;Compound Path&#62;" d="M12.2344 19.8281C13.8143 19.8264 15.3289 19.198 16.4461 18.0808C17.5632 16.9637 18.1916 15.449 18.1934 13.8691V13.1836H6.27539V13.8691C6.27716 15.449 6.90555 16.9637 8.02269 18.0808C9.13984 19.198 10.6545 19.8264 12.2344 19.8281ZM7.5648 14.0579C7.61273 14.0506 7.66162 14.0529 7.70868 14.0645C7.75574 14.0761 7.80005 14.0969 7.83908 14.1257C7.87811 14.1544 7.91109 14.1906 7.93614 14.2321C7.96119 14.2736 7.97783 14.3196 7.98509 14.3675C8.32881 16.6361 9.46756 17.1123 10.3623 17.1123C10.4602 17.1123 10.5541 17.1512 10.6233 17.2204C10.6926 17.2897 10.7314 17.3835 10.7314 17.4814C10.7314 17.5793 10.6926 17.6732 10.6233 17.7425C10.5541 17.8117 10.4602 17.8506 10.3623 17.8506C9.48449 17.8506 8.73387 17.5006 8.19149 16.8387C7.72037 16.2636 7.40533 15.4694 7.25514 14.4782C7.24788 14.4302 7.25012 14.3813 7.26175 14.3343C7.27338 14.2872 7.29417 14.2429 7.32292 14.2039C7.35168 14.1649 7.38784 14.1319 7.42934 14.1068C7.47084 14.0818 7.51687 14.0651 7.5648 14.0579Z" fill="black"/>
<path id="&#60;Path&#62;_3" d="M17.9033 7.91016H18.3516V7.17188H17.9033C17.8054 7.17188 17.7115 7.21077 17.6423 7.27999C17.5731 7.34922 17.5342 7.44311 17.5342 7.54102C17.5342 7.63892 17.5731 7.73281 17.6423 7.80204C17.7115 7.87127 17.8054 7.91016 17.9033 7.91016Z" fill="black"/>
</g>
</g>
</svg>
