<svg width="29" height="29" viewBox="0 0 29 29" fill="none" xmlns="http://www.w3.org/2000/svg">
<g clip-path="url(#clip0_31_27)">
<path d="M8.06932 5.65417C6.96791 4.59114 6.96791 2.86031 8.06932 1.79727C9.17073 0.734242 10.9641 0.734242 12.0655 1.79727C13.1669 2.86031 13.1669 4.59114 12.0655 5.65417C10.9499 6.73083 9.17073 6.73083 8.06932 5.65417ZM5.82413 20.0869V9.18399C5.82413 8.43441 5.1887 7.82112 4.41207 7.82112C3.63543 7.82112 3 8.43441 3 9.18399V20.0869C3 23.8484 6.16303 26.9012 10.0603 26.9012H17.1207C17.8973 26.9012 18.5327 26.2879 18.5327 25.5383C18.5327 24.7888 17.8973 24.1755 17.1207 24.1755H10.0603C7.7163 24.1755 5.82413 22.3492 5.82413 20.0869ZM24.5764 24.6525L19.2529 19.5145C18.7304 19.0102 18.0103 18.724 17.2619 18.724H13.5905V13.7087C15.1297 14.9216 17.3466 16.0256 19.5212 16.4617C20.4673 16.6525 21.3569 15.971 21.3569 15.0443C21.3569 14.322 20.8062 13.7359 20.0578 13.6133C18.0526 13.2862 15.991 12.2368 14.7625 10.9284L12.7856 8.81601C12.5173 8.52981 12.1784 8.29813 11.8113 8.13458C11.4018 7.94378 10.9358 7.82112 10.4557 7.82112H10.4134C8.66239 7.82112 7.2362 9.19761 7.2362 10.8876V18.724C7.2362 20.9864 9.12837 22.8126 11.4724 22.8126H18.6316L22.5571 26.6014C23.1078 27.1329 24.0257 27.1329 24.5764 26.6014C25.1412 26.0698 25.1412 25.1976 24.5764 24.6525Z" fill="black"/>
</g>
<defs>
<clipPath id="clip0_31_27">
<rect width="29" height="29" fill="white"/>
</clipPath>
</defs>
</svg>
