<svg width="20" height="20" viewBox="0 0 20 20" fill="none" xmlns="http://www.w3.org/2000/svg">
<path d="M6.25 9.18438L5.43437 2.36251C5.41887 2.23053 5.4316 2.09676 5.47172 1.97008C5.51184 1.84339 5.57843 1.72668 5.66708 1.62769C5.75573 1.52869 5.86441 1.44968 5.98592 1.39588C6.10743 1.34208 6.23899 1.31473 6.37187 1.31563H13.6344C13.7673 1.31473 13.8988 1.34208 14.0203 1.39588C14.1418 1.44968 14.2505 1.52869 14.3392 1.62769C14.4278 1.72668 14.4944 1.84339 14.5345 1.97008C14.5747 2.09676 14.5874 2.23053 14.5719 2.36251L13.75 9.18438H6.25ZM6.65 18.275L7.36875 16.0875H12.625L13.3438 18.275C13.3595 18.3232 13.3633 18.3745 13.3549 18.4244C13.3464 18.4744 13.3259 18.5216 13.2952 18.5619C13.2644 18.6022 13.2243 18.6344 13.1783 18.6557C13.1324 18.6771 13.0819 18.6869 13.0313 18.6844H6.94687C6.89755 18.6843 6.84894 18.6726 6.80501 18.6502C6.76108 18.6278 6.72308 18.5953 6.69413 18.5553C6.66517 18.5154 6.64608 18.4692 6.63841 18.4205C6.63074 18.3718 6.63471 18.3219 6.65 18.275ZM12.625 16.0781C14.375 15.5313 15.6562 13.5938 15.6562 11.25H4.34375C4.34375 13.5813 5.63125 15.5188 7.375 16.0656L12.625 16.0781Z" stroke="#2d3436" stroke-width="1.3" stroke-miterlimit="10"/>
<path d="M15.3 9.18439H4.69688C4.12215 9.18439 3.65625 9.64959 3.65625 10.2234C3.65625 10.7973 4.12215 11.2625 4.69688 11.2625H15.3C15.8747 11.2625 16.3406 10.7973 16.3406 10.2234C16.3406 9.64959 15.8747 9.18439 15.3 9.18439Z" stroke="#2d3436" stroke-width="1.3" stroke-miterlimit="10"/>
</svg>
