<svg width="22" height="22" viewBox="0 0 20 20" fill="none" xmlns="http://www.w3.org/2000/svg">

<path d="M10 16.6667C9.53976 16.6667 9.16667 16.2936 9.16667 15.8333C9.16667 15.3731 9.53976 15 10 15C10.4602 15 10.8333 15.3731 10.8333 15.8333C10.8333 16.2936 10.4602 16.6667 10 16.6667Z" fill="#2d3436"/>
<path d="M10 11.6667C11.0786 11.6666 12.1151 12.0848 12.8917 12.8333C13.0508 12.9869 13.1424 13.1975 13.1463 13.4186C13.1502 13.6397 13.0661 13.8534 12.9125 14.0125C12.7589 14.1716 12.5484 14.2632 12.3272 14.2671C12.1061 14.271 11.8925 14.1869 11.7333 14.0333C11.2601 13.6 10.6417 13.3596 10 13.3596C9.35832 13.3596 8.73992 13.6 8.26667 14.0333C8.10754 14.1869 7.8939 14.271 7.67277 14.2671C7.45163 14.2632 7.2411 14.1716 7.0875 14.0125C6.93389 13.8534 6.84979 13.6397 6.8537 13.4186C6.85761 13.1975 6.9492 12.9869 7.10833 12.8333C7.88489 12.0848 8.92144 11.6666 10 11.6667ZM10 7.49999C11.0065 7.50065 12.0026 7.70389 12.9288 8.09761C13.8551 8.49132 14.6927 9.06744 15.3917 9.79166C15.4677 9.87209 15.5272 9.96672 15.5667 10.0701C15.6062 10.1736 15.6249 10.2837 15.6218 10.3944C15.6187 10.5051 15.5938 10.614 15.5486 10.7151C15.5034 10.8161 15.4388 10.9073 15.3583 10.9833C15.1959 11.1369 14.9791 11.2197 14.7556 11.2135C14.6449 11.2104 14.536 11.1855 14.4349 11.1403C14.3339 11.0951 14.2427 11.0304 14.1667 10.95C13.6225 10.3854 12.9701 9.93637 12.2485 9.62965C11.5268 9.32293 10.7508 9.16484 9.96667 9.16484C9.18255 9.16484 8.40648 9.32293 7.68485 9.62965C6.96321 9.93637 6.31082 10.3854 5.76667 10.95C5.68949 11.0287 5.59745 11.0914 5.49589 11.1343C5.39432 11.1772 5.28525 11.1995 5.175 11.2C5.01215 11.1994 4.85305 11.1511 4.71736 11.061C4.58167 10.9709 4.47534 10.8431 4.41151 10.6933C4.34768 10.5435 4.32915 10.3782 4.3582 10.218C4.38726 10.0577 4.46263 9.90953 4.575 9.79166C5.27784 9.06339 6.12082 8.48492 7.05316 8.09107C7.98549 7.69723 8.9879 7.49617 10 7.49999Z" fill="#2d3436"/>
<path d="M1.9 6.60834C4.07465 4.51048 6.9784 3.33817 10 3.33817C13.0216 3.33817 15.9254 4.51048 18.1 6.60834C18.2406 6.76472 18.3169 6.96849 18.3136 7.17878C18.3103 7.38907 18.2276 7.59032 18.082 7.74217C17.9365 7.89401 17.739 7.98522 17.529 7.99749C17.3191 8.00976 17.1122 7.94219 16.95 7.80834C15.0853 6.00594 12.5934 4.99844 10 4.99844C7.40662 4.99844 4.91467 6.00594 3.05 7.80834C2.89552 7.95724 2.68956 8.04082 2.475 8.04167C2.36275 8.04124 2.25174 8.01814 2.14863 7.97375C2.04553 7.92936 1.95246 7.86459 1.875 7.78334C1.72307 7.62392 1.64041 7.41085 1.6451 7.19068C1.64978 6.97051 1.74142 6.76115 1.9 6.60834Z" fill="#2d3436"/>

</svg>
